<svg xmlns="http://www.w3.org/2000/svg" width="161.181" height="86.578" viewBox="0 0 161.181 86.578">
  <g id="Grupo_240" data-name="Grupo 240" transform="translate(-416 -4821)">
    <g id="Grupo_120" data-name="Grupo 120" transform="translate(417.725 4897.692)">
      <path id="Trazado_329" data-name="Trazado 329" d="M19.894,315.362H21.45l5.122,6.609v-6.609h1.652v9.559H26.817l-5.27-6.8v6.8H19.894Z" transform="translate(-19.894 -315.198)" fill="#262260"/>
      <path id="Trazado_330" data-name="Trazado 330" d="M63.177,315.362h3.565a4.765,4.765,0,0,1,5.079,4.752v.028a4.785,4.785,0,0,1-5.079,4.78H63.177Zm1.679,1.53v6.5h1.886a3.116,3.116,0,0,0,3.318-3.223v-.028a3.136,3.136,0,0,0-3.318-3.249Z" transform="translate(-52.39 -315.198)" fill="#262260"/>
      <path id="Trazado_331" data-name="Trazado 331" d="M102.9,323.115l1.01-1.2a4.423,4.423,0,0,0,3.018,1.242c1.038,0,1.694-.49,1.694-1.2v-.027c0-.683-.383-1.053-2.158-1.462-2.035-.492-3.182-1.093-3.182-2.855v-.027c0-1.639,1.366-2.772,3.264-2.772a5.3,5.3,0,0,1,3.468,1.2l-.9,1.27a4.341,4.341,0,0,0-2.594-.983c-.984,0-1.558.506-1.558,1.135v.027c0,.737.437,1.065,2.281,1.5,2.021.494,3.059,1.218,3.059,2.8v.028c0,1.789-1.408,2.855-3.413,2.855a5.886,5.886,0,0,1-3.988-1.53" transform="translate(-82.218 -314.785)" fill="#262260"/>
      <path id="Trazado_332" data-name="Trazado 332" d="M170.861,323.6a4.689,4.689,0,0,1-.86.524,4.622,4.622,0,0,1-.989.343,5.187,5.187,0,0,1-1.16.122,4.68,4.68,0,0,1-3.408-1.426,4.754,4.754,0,0,1-.989-1.563,5.188,5.188,0,0,1-.355-1.926v-.028a5.066,5.066,0,0,1,.362-1.911,4.969,4.969,0,0,1,1-1.578,4.619,4.619,0,0,1,3.421-1.455,5.61,5.61,0,0,1,1.161.11,4.547,4.547,0,0,1,.961.313,5.014,5.014,0,0,1,.834.487,7.855,7.855,0,0,1,.757.62l-.505.521a7.453,7.453,0,0,0-.655-.562,4.19,4.19,0,0,0-1.578-.736,4.326,4.326,0,0,0-.989-.108,3.878,3.878,0,0,0-2.875,1.234,4.318,4.318,0,0,0-.847,1.36,4.511,4.511,0,0,0-.307,1.68v.026a4.481,4.481,0,0,0,.315,1.686A4.331,4.331,0,0,0,165,322.7a3.923,3.923,0,0,0,1.277.915,3.816,3.816,0,0,0,1.6.336,3.991,3.991,0,0,0,1.8-.383,5.8,5.8,0,0,0,1.489-1.106l.477.464a8.85,8.85,0,0,1-.786.676" transform="translate(-127.411 -314.705)" fill="#262260"/>
      <path id="Trazado_333" data-name="Trazado 333" d="M211.7,321.527a4.95,4.95,0,0,1-.976,1.576,4.615,4.615,0,0,1-1.523,1.086,4.759,4.759,0,0,1-1.973.4,4.648,4.648,0,0,1-3.482-1.482,4.777,4.777,0,0,1-.97-1.563,5.174,5.174,0,0,1-.341-1.87v-.028a5.141,5.141,0,0,1,.347-1.876,4.964,4.964,0,0,1,.978-1.579,4.63,4.63,0,0,1,1.515-1.084,4.8,4.8,0,0,1,5.461,1.077,4.808,4.808,0,0,1,.971,1.565,5.166,5.166,0,0,1,.34,1.87.015.015,0,0,1,0,.026,5.147,5.147,0,0,1-.348,1.879m-.389-1.879a4.563,4.563,0,0,0-.307-1.674,4.327,4.327,0,0,0-.846-1.365,4.011,4.011,0,0,0-1.291-.92,3.994,3.994,0,0,0-4.555.906,4.265,4.265,0,0,0-.84,1.359,4.619,4.619,0,0,0-.3,1.667v.026a4.536,4.536,0,0,0,.308,1.674,4.266,4.266,0,0,0,.846,1.365,3.99,3.99,0,0,0,1.291.921,3.992,3.992,0,0,0,4.555-.908,4.207,4.207,0,0,0,.839-1.358,4.6,4.6,0,0,0,.3-1.666Z" transform="translate(-156.947 -314.705)" fill="#262260"/>
      <path id="Trazado_334" data-name="Trazado 334" d="M255.952,324.163a5.19,5.19,0,0,1-2.137.428,5.021,5.021,0,0,1-2.028-.389,4.39,4.39,0,0,1-1.508-1.058,4.66,4.66,0,0,1-.943-1.562,5.54,5.54,0,0,1-.328-1.906v-.028a5.236,5.236,0,0,1,.336-1.863,4.821,4.821,0,0,1,.956-1.578,4.679,4.679,0,0,1,1.494-1.093,4.53,4.53,0,0,1,1.939-.409,6.282,6.282,0,0,1,1.073.083,4.4,4.4,0,0,1,.9.246,4.771,4.771,0,0,1,.791.4,6.057,6.057,0,0,1,.732.532l-.465.532a5.15,5.15,0,0,0-1.276-.819,4.319,4.319,0,0,0-1.8-.327,3.683,3.683,0,0,0-1.6.34,3.889,3.889,0,0,0-1.249.927,4.214,4.214,0,0,0-.814,1.363,4.691,4.691,0,0,0-.286,1.636v.026a5.094,5.094,0,0,0,.279,1.717,3.857,3.857,0,0,0,.813,1.364,3.749,3.749,0,0,0,1.29.9,4.307,4.307,0,0,0,1.714.328,4.408,4.408,0,0,0,.887-.09,4.968,4.968,0,0,0,.826-.237,5.067,5.067,0,0,0,.73-.346,4.208,4.208,0,0,0,.6-.414v-2.736h-3.194v-.642h3.878v3.678a6.467,6.467,0,0,1-1.619,1" transform="translate(-191.91 -314.705)" fill="#262260"/>
      <path id="Trazado_335" data-name="Trazado 335" d="M301.079,324.921l-6.732-8.494v8.494h-.683v-9.559h.67l6.6,8.317v-8.317h.683v9.559Z" transform="translate(-225.437 -315.198)" fill="#262260"/>
      <rect id="Rect치ngulo_241" data-name="Rect치ngulo 241" width="0.71" height="9.559" transform="translate(79.109 0.164)" fill="#262260"/>
      <path id="Trazado_336" data-name="Trazado 336" d="M353.267,316v8.917h-.71V316h-3.331v-.642H356.6V316Z" transform="translate(-267.152 -315.198)" fill="#262260"/>
      <rect id="Rect치ngulo_242" data-name="Rect치ngulo 242" width="0.711" height="9.559" transform="translate(91.7 0.164)" fill="#262260"/>
      <path id="Trazado_337" data-name="Trazado 337" d="M404.031,324.989H403.4l-4.2-9.627h.791l3.741,8.795,3.756-8.795h.75Z" transform="translate(-304.672 -315.198)" fill="#262260"/>
      <path id="Trazado_338" data-name="Trazado 338" d="M443.578,324.921v-9.559h6.8V316h-6.091v3.782h5.476v.643h-5.476v3.85h6.158v.643Z" transform="translate(-337.991 -315.198)" fill="#262260"/>
      <path id="Trazado_339" data-name="Trazado 339" d="M503.763,324.921v-9.559h.711v8.916h5.612v.643Z" transform="translate(-383.177 -315.198)" fill="#262260"/>
      <path id="Trazado_340" data-name="Trazado 340" d="M543.207,324.713l-1.216-2.678h-5.64l-1.215,2.678H534.4l4.451-9.628h.682l4.452,9.628Zm-4.029-8.849-2.526,5.531h5.038Z" transform="translate(-406.178 -314.99)" fill="#262260"/>
      <path id="Trazado_341" data-name="Trazado 341" d="M588.289,323.4a2.288,2.288,0,0,1-.693.817,3.348,3.348,0,0,1-1.078.517,4.913,4.913,0,0,1-1.4.185h-4.142v-9.559h3.937a4.588,4.588,0,0,1,1.268.165,2.859,2.859,0,0,1,.973.472,2.207,2.207,0,0,1,.629.745,2.1,2.1,0,0,1,.223.971v.029a2.4,2.4,0,0,1-.142.862,2.229,2.229,0,0,1-.9,1.1,3.935,3.935,0,0,1-.578.308,4.84,4.84,0,0,1,.818.292,2.551,2.551,0,0,1,.688.466,2.182,2.182,0,0,1,.47.651,2.037,2.037,0,0,1,.176.866v.027a2.346,2.346,0,0,1-.245,1.085m-1-5.622a1.566,1.566,0,0,0-.615-1.287A2.8,2.8,0,0,0,584.9,316h-3.222v3.782h3.154a3.519,3.519,0,0,0,.983-.131,2.332,2.332,0,0,0,.777-.377,1.71,1.71,0,0,0,.513-.62,1.878,1.878,0,0,0,.185-.851Zm.533,4.513a1.551,1.551,0,0,0-.745-1.377,3.972,3.972,0,0,0-2.163-.486h-3.236v3.85h3.468a3.238,3.238,0,0,0,1.952-.527,1.675,1.675,0,0,0,.725-1.431Z" transform="translate(-441.145 -315.198)" fill="#262260"/>
      <path id="Trazado_342" data-name="Trazado 342" d="M624.84,323.1a2.442,2.442,0,0,1-.656.825,3.032,3.032,0,0,1-1,.534,4.088,4.088,0,0,1-1.277.192,5.333,5.333,0,0,1-2.068-.384,6.356,6.356,0,0,1-1.783-1.147l.465-.532a6.569,6.569,0,0,0,.785.634,4.347,4.347,0,0,0,1.66.7,5.123,5.123,0,0,0,.983.088,3.2,3.2,0,0,0,.983-.143,2.313,2.313,0,0,0,.764-.4,1.849,1.849,0,0,0,.491-.6,1.632,1.632,0,0,0,.178-.756v-.028a1.912,1.912,0,0,0-.115-.683,1.324,1.324,0,0,0-.425-.546,3.147,3.147,0,0,0-.825-.445,8.9,8.9,0,0,0-1.339-.361,9.113,9.113,0,0,1-1.475-.415,3.617,3.617,0,0,1-1-.561,1.885,1.885,0,0,1-.566-.745,2.463,2.463,0,0,1-.179-.968v-.028a2.158,2.158,0,0,1,.233-.99,2.522,2.522,0,0,1,.64-.8,3.078,3.078,0,0,1,.97-.532,3.756,3.756,0,0,1,1.229-.191,5.078,5.078,0,0,1,1.8.287,5.354,5.354,0,0,1,1.481.873l-.45.56a4.432,4.432,0,0,0-1.373-.833,4.388,4.388,0,0,0-1.481-.244,3.067,3.067,0,0,0-.964.141,2.4,2.4,0,0,0-.738.39,1.727,1.727,0,0,0-.471.574,1.561,1.561,0,0,0-.163.7v.027a1.936,1.936,0,0,0,.115.69,1.356,1.356,0,0,0,.424.561,2.992,2.992,0,0,0,.854.457,9.522,9.522,0,0,0,1.392.381,5.552,5.552,0,0,1,2.4.963,2.082,2.082,0,0,1,.737,1.676v.027a2.372,2.372,0,0,1-.239,1.057" transform="translate(-468.99 -314.788)" fill="#262260"/>
    </g>
    <g id="Grupo_121" data-name="Grupo 121" transform="translate(416 4821)">
      <path id="Trazado_343" data-name="Trazado 343" d="M60.823,73.006,24.483,26.024V73.006H12.972V6.968H23.705l37.118,47.9" transform="translate(-12.972 -6.968)" fill="#e11288"/>
      <path id="Trazado_344" data-name="Trazado 344" d="M473.44,34.119a14.92,14.92,0,0,0,3.876,5.185,22.237,22.237,0,0,0,6.428,3.776,72.53,72.53,0,0,0,8.892,2.82q4.561,1.09,7.525,2.091a19.748,19.748,0,0,1,4.651,2.138,6.271,6.271,0,0,1,2.325,2.548,7.719,7.719,0,0,1,.639,3.228v.182a6.639,6.639,0,0,1-2.729,5.368q-2.73,2.182-7.641,2.183a23.432,23.432,0,0,1-8.642-1.683,39.128,39.128,0,0,1-8.641-4.867l-6,8.46a37.5,37.5,0,0,0,10.506,5.958,36.458,36.458,0,0,0,12.6,2.047,26.825,26.825,0,0,0,8.724-1.364,20.864,20.864,0,0,0,6.837-3.775,17.15,17.15,0,0,0,6.089-13.326v-.182a17.852,17.852,0,0,0-1.413-7.459,14.047,14.047,0,0,0-4.1-5.23,24.6,24.6,0,0,0-6.658-3.638,70.588,70.588,0,0,0-9.073-2.684,62.528,62.528,0,0,1-7.251-2A17.268,17.268,0,0,1,486,31.709a6.633,6.633,0,0,1-2.19-2.5,7.387,7.387,0,0,1-.592-3.047v-.182a6.822,6.822,0,0,1,3.047-5.823,13.885,13.885,0,0,1,8.232-2.183l.2,0a.88.88,0,0,1-.052-.3V8.059a31.32,31.32,0,0,0-9.051,1.272,20.493,20.493,0,0,0-7.154,3.73,17.176,17.176,0,0,0-4.646,6,18.57,18.57,0,0,0-1.67,8v.182A16.693,16.693,0,0,0,473.44,34.119Z" transform="translate(-357.692 -7.787)" fill="#354de8"/>
      <path id="Trazado_345" data-name="Trazado 345" d="M261.675,26.826A30.87,30.87,0,0,0,254.458,16.4a33.564,33.564,0,0,0-11.133-6.936,39.094,39.094,0,0,0-14.2-2.5H204.5V45.325h11.678V17.439h12.851a25.1,25.1,0,0,1,9.434,1.707,21.2,21.2,0,0,1,7.218,4.69,20.929,20.929,0,0,1,4.622,7.152,24.245,24.245,0,0,1,1.651,9v.19a23.89,23.89,0,0,1-1.651,8.952,21.027,21.027,0,0,1-4.622,7.106,19.625,19.625,0,0,1-3.258,2.632V70.8q.452-.162.9-.339a34.1,34.1,0,0,0,11.133-6.981,30.735,30.735,0,0,0,7.217-10.471,33.142,33.142,0,0,0,2.547-13.019V39.8A32.808,32.808,0,0,0,261.675,26.826Z" transform="translate(-156.772 -6.968)" fill="#efe80d"/>
    </g>
  </g>
</svg>
